# xmcd
#
# Track frame offsets:
#	150
#	14755
#	28340
#	39520
#	51898
#	63093
#	74273
#	86668
#	101758
#	114838
#	128413
#	141165
#	152573
#	169813
#	187648
#	199678
#	210918
#	224620
#	236678
#	249580
#	272943
#	297268
#	316690
#	337820
#
# Disc length: 4678 seconds
#
# Revision: 0
# Processed by: cddbd v1.4PL0 Copyright (c) Steve Scherf et al.
# Submitted via: dBpowerAMP V4.0
#
DISCID=55124418
DTITLE=Clooney, Rosemary - Memories of YOu
DYEAR=1900
DGENRE=
TTITLE0=I Found My Mamma (with Eddy Manson)
TTITLE1=Me And My Teddy Bear
TTITLE2=Little Johnny Chickadee
TTITLE3=Peterkin Pillowby
TTITLE4=Who'll Tie The Bell (On The Old Cat's Tail)
TTITLE5=Little Sally One Shoe
TTITLE6=Punky Punkin (The Happy Pumpkin)
TTITLE7=The Wobblin' Goblin
TTITLE8=Fuzzy Wuzzy (Wuz A Bear)
TTITLE9=My Choc'late Rabbit
TTITLE10=The land Of Hatchy Milatchy
TTITLE11=The Syncopated Clock
TTITLE12=Songs From Alice In Wonderland - Alice In Wonderland-The Unbirthday Song
TTITLE13=Songs From Alice In Wonderland - All In A Golden Afternoon-I'm Late
TTITLE14=Dandy, Handy And Candy
TTITLE15=Willie, The Whistling Giraffe
TTITLE16=Eggbert, The Easter Egg
TTITLE17=Bunny On The Rainbow
TTITLE18=On The Good Ship Lollipop
TTITLE19=Snow White And The Seven Dwarfs (part 1)
TTITLE20=Snow White And The Seven Dwarfs (part 2)
TTITLE21=Little Red Riding Hood
TTITLE22=Goldilocks And The Three Bears
TTITLE23=Little Josey (with Jimmy Boyd)
EXTD=
EXTT0=
EXTT1=
EXTT2=
EXTT3=
EXTT4=
EXTT5=
EXTT6=
EXTT7=
EXTT8=
EXTT9=
EXTT10=
EXTT11=
EXTT12=
EXTT13=
EXTT14=
EXTT15=
EXTT16=
EXTT17=
EXTT18=
EXTT19=
EXTT20=
EXTT21=
EXTT22=
EXTT23=
PLAYORDER=
